<svg t="1709433437143" class="icon" viewBox="0 0 1024 1024" version="1.1" xmlns="http://www.w3.org/2000/svg" p-id="5269" width="48" height="48"><path d="M922.510222 70.087111H101.489778A89.429333 89.429333 0 0 0 12.060444 159.288889v504.718222a89.429333 89.429333 0 0 0 89.429334 89.201778h100.807111v176.810667a22.755556 22.755556 0 0 0 36.864 19.569777l117.418667-78.734222 117.646222 78.734222a22.755556 22.755556 0 0 0 36.864-19.569777V753.208889h411.420444a89.429333 89.429333 0 0 0 89.201778-89.201778V159.288889a89.429333 89.429333 0 0 0-89.201778-89.201778z m-412.558222 486.968889a22.755556 22.755556 0 0 0-4.323556 10.012444L493.568 637.155556l-70.542222 10.695111a22.755556 22.755556 0 0 0-10.012445 4.096l-58.254222 41.187555-57.344-42.325333a22.755556 22.755556 0 0 0-10.012444-4.323556l-70.314667-11.605333-10.695111-70.542222a22.755556 22.755556 0 0 0-4.096-10.012445L161.109333 496.071111l42.325334-57.344a22.755556 22.755556 0 0 0 4.323555-10.012444l12.060445-70.314667 70.542222-10.695111a22.755556 22.755556 0 0 0 10.012444-4.096l58.254223-41.187556 57.344 42.325334a22.755556 22.755556 0 0 0 10.012444 4.323555l70.314667 12.060445 10.695111 71.224889a22.755556 22.755556 0 0 0 4.096 10.012444L552.277333 500.622222z m-140.174222 265.784889a22.755556 22.755556 0 0 0-7.736889-3.640889 22.755556 22.755556 0 0 0-6.826667 0h-3.185778a22.755556 22.755556 0 0 0-8.419555 3.413333L250.311111 885.873778v-197.518222l22.755556 4.096 68.266666 49.152a22.755556 22.755556 0 0 0 27.534223 0l68.266666-47.786667 27.989334-4.323556v196.152889z m594.830222-159.288889A42.097778 42.097778 0 0 1 922.510222 705.422222H510.862222v-22.755555h6.599111a22.755556 22.755556 0 0 0 19.797334-19.342223l13.880889-81.692444 49.152-66.673778a22.755556 22.755556 0 0 0 0-27.761778l-47.786667-68.266666-12.515556-81.92a22.755556 22.755556 0 0 0-19.342222-19.797334l-81.464889-13.880888-66.673778-49.152a22.755556 22.755556 0 0 0-27.761777 0l-68.266667 47.786666-81.92 12.515556a22.755556 22.755556 0 0 0-19.797333 19.342222l-12.743111 81.237333L113.777778 481.735111a22.755556 22.755556 0 0 0 0 27.534222l47.786666 68.266667L172.942222 659.911111a22.755556 22.755556 0 0 0 19.342222 19.797333l10.012445 1.820445V705.422222H101.489778a42.097778 42.097778 0 0 1-42.097778-42.097778V159.288889a42.097778 42.097778 0 0 1 42.097778-41.870222h821.020444A42.097778 42.097778 0 0 1 964.608 159.288889v504.718222z" p-id="5270" fill="#2c2c2c"></path><path d="M836.721778 368.867556h-159.288889a22.755556 22.755556 0 1 0 0 47.331555h159.288889a22.755556 22.755556 0 0 0 0-47.331555zM836.721778 250.311111h-159.288889a22.755556 22.755556 0 1 0 0 47.331556h159.288889a22.755556 22.755556 0 0 0 0-47.331556z" p-id="5271" fill="#2c2c2c"></path></svg>