<svg t="1709453673042" class="icon" viewBox="0 0 1024 1024" version="1.1" xmlns="http://www.w3.org/2000/svg" p-id="11664" width="48" height="48"><path d="M752.489 1023.989h-480.9c-83.3 0-151.1-63.8-151.1-142.3v-670.9c0-16.6 13.4-30.1 30.1-30.1 16.6 0 30.1 13.4 30.1 30.1v670.9c0 45.2 40.8 82.1 90.8 82.1h480.8c50.1 0 90.8-36.8 90.8-82.1v-318.1c0-16.6 13.4-30.1 30.1-30.1 16.6 0 30.1 13.4 30.1 30.1v318.1c0.3 78.5-67.4 142.3-150.8 142.3z m120.9-694.9c-16.6 0-30.1-13.4-30.1-30.1v-88.2c0-16.6 13.4-30.1 30.1-30.1 16.6 0 30.1 13.4 30.1 30.1v88.2c0.1 16.7-13.3 30.1-30.1 30.1zM963.889 210.789h-903.6c-16.6 0-30.1-13.4-30.1-30.1s13.4-30.1 30.1-30.1h903.5c16.6 0 30.1 13.4 30.1 30.1s-13.4 30.1-30 30.1zM512.089 210.789c-33.2 0-60.2-27-60.2-60.2v-90.3c0-33.2 27-60.2 60.2-60.2s60.2 26.9 60.2 60.1v90.3c0 33.3-27 60.3-60.2 60.3zM361.489 873.289c-16.6 0-30.1-13.4-30.1-30.1v-542.1c0-16.6 13.4-30.1 30.1-30.1 16.6 0 30.1 13.4 30.1 30.1v542.1c0 16.7-13.5 30.1-30.1 30.1zM662.589 873.289c-16.6 0-30.1-13.4-30.1-30.1v-542.1c0-16.6 13.4-30.1 30.1-30.1 16.6 0 30.1 13.4 30.1 30.1v542.1c0.1 16.7-13.4 30.1-30.1 30.1z" p-id="11665"></path></svg>