<svg t="1709125848453" class="icon" viewBox="0 0 1024 1024" version="1.1" xmlns="http://www.w3.org/2000/svg" p-id="4233" width="48" height="48"><path d="M512 0C230.4 0 0 230.4 0 512s230.4 512 512 512 512-230.4 512-512-230.4-512-512-512z m0 960c-249.6 0-448-198.4-448-448s198.4-448 448-448 448 198.4 448 448-198.4 448-448 448z" fill="#2c2c2c" p-id="4234"></path><path d="M435.2 262.4c-6.4-6.4-32-6.4-44.8 0-6.4 12.8-6.4 38.4 0 44.8L595.2 512l-204.8 204.8c-12.8 12.8-12.8 32 0 44.8 12.8 12.8 32 12.8 44.8 0l224-224c12.8-12.8 12.8-32 0-44.8L435.2 262.4z" fill="#2c2c2c" p-id="4235"></path></svg>